<svg xmlns="http://www.w3.org/2000/svg" version="1.1" viewBox="-5.0 -10.0 110.0 135.0">
 <path d="m96.766 9.2656c-1.8828-2.7188-5.6367-3.3594-8.3984-1.5508l-4.1719 2.7344v-0.003907c-5.4062 3.5352-8.668 9.5586-8.6719 16.02v0.61719-0.003906c-0.003907 5.2617-2.0234 10.324-5.6406 14.148-3.6172 3.8242-8.5586 6.1172-13.816 6.4141l0.003906-17.867c-0.003906-2.2344 0.88281-4.375 2.4648-5.957 1.5781-1.5781 3.7227-2.4688 5.957-2.4688 3.3047 0 6.0938-2.5898 6.1875-5.8906v-0.003906c0.046874-1.6328-0.56641-3.2227-1.707-4.3945-1.1406-1.1758-2.7109-1.8398-4.3477-1.8398h-29.102c-3.3047 0-6.0938 2.5898-6.1875 5.8906v0.003906c-0.046876 1.6367 0.56641 3.2227 1.707 4.3984s2.7109 1.8359 4.3477 1.8359h0.125c2.2344 0 4.3789 0.88672 5.9609 2.4688 1.582 1.5781 2.4688 3.7227 2.4688 5.957v17.773c-5.0469-0.55078-9.7109-2.9453-13.102-6.7227-3.3906-3.7773-5.2695-8.6758-5.2773-13.754 0.011719-6.543-3.3398-12.637-8.8711-16.133l-5.2266-3.3203c-2.8203-1.7969-6.5664-0.96875-8.3672 1.8516-1.7969 2.8242-0.96484 6.5703 1.8555 8.3672l5.2266 3.3203h-0.003906c2.0195 1.2773 3.2461 3.5 3.25 5.8906-0.015626 17.312 13.477 31.531 30.508 32.68v13.062-0.003906c0 2.2344-0.89062 4.3789-2.4688 5.9609-1.582 1.5781-3.7266 2.4688-5.9609 2.4648-3.3047 0-6.0938 2.5898-6.1875 5.8906v0.003907c-0.046874 1.6367 0.56641 3.2227 1.707 4.3984 1.1406 1.1758 2.7109 1.8359 4.3477 1.8359h29.102c3.3047 0 6.0938-2.5898 6.1875-5.8906v-0.003907c0.046876-1.6328-0.56641-3.2227-1.707-4.3945-1.1406-1.1758-2.7109-1.8398-4.3477-1.8398h-0.125c-2.2344 0.003906-4.3789-0.88672-5.9609-2.4648-1.5781-1.582-2.4688-3.7266-2.4688-5.9609v-13.008c17.516-0.60156 31.586-15.039 31.586-32.703v-0.61719c0.003906-2.3633 1.1992-4.5703 3.1797-5.8633l4.2773-2.7969c1.375-0.89453 2.3281-2.3047 2.6406-3.9141 0.31641-1.6055-0.035156-3.2734-0.97266-4.6211z"/>
<text x="0.0" y="117.5" font-size="5.0" font-weight="bold" font-family="Arbeit Regular, Helvetica, Arial-Unicode, Arial, Sans-serif" fill="#000000">Created by BEARicons</text><text x="0.0" y="122.5" font-size="5.0" font-weight="bold" font-family="Arbeit Regular, Helvetica, Arial-Unicode, Arial, Sans-serif" fill="#000000">from Noun Project</text></svg>